{
    "asset" : {
        "generator" : "Khronos glTF Blender I/O v0.9.36",
        "version" : "2.0"
    },
    "scene" : 0,
    "scenes" : [
        {
            "name" : "Scene",
            "nodes" : [
                0,
                1,
                2,
                3
            ]
        }
    ],
    "nodes" : [
        {
            "mesh" : 0,
            "name" : "Cube"
        },
        {
            "name" : "Light",
            "rotation" : [
                0.16907575726509094,
                0.27217137813568115,
                0.7558803558349609,
                0.570947527885437
            ],
            "scale" : [
                1.1643788814544678,
                2.7995409965515137,
                2.785033702850342
            ],
            "translation" : [
                1.2987689971923828,
                3.091449737548828,
                5.8770952224731445
            ]
        },
        {
            "camera" : 0,
            "name" : "Camera",
            "rotation" : [
                0.483536034822464,
                0.20870360732078552,
                0.33687159419059753,
                0.7804827094078064
            ],
            "scale" : [
                1.8820607662200928,
                2.699603796005249,
                2.1675164699554443
            ],
            "translation" : [
                10.734445571899414,
                -4.839795112609863,
                3.159186601638794
            ]
        },
        {
            "name" : "Empty",
            "rotation" : [
                0.5,
                0.5,
                -0.5,
                0.4999999701976776
            ],
            "translation" : [
                9.732149124145508,
                2.4426665277132997e-06,
                18.180173873901367
            ]
        }
    ],
    "cameras" : [
        {
            "name" : "Camera",
            "perspective" : {
                "yfov" : 0.39959652046304894,
                "zfar" : 100,
                "znear" : 0.10000000149011612
            },
            "type" : "perspective"
        }
    ],
    "materials" : [
        {
            "doubleSided" : true,
            "name" : "Material",
            "pbrMetallicRoughness" : {
                "baseColorTexture" : {
                    "index" : 0,
                    "texCoord" : 0
                },
                "metallicFactor" : 0,
                "roughnessFactor" : 0.4000000059604645
            }
        }
    ],
    "meshes" : [
        {
            "name" : "Cube",
            "primitives" : [
                {
                    "attributes" : {
                        "POSITION" : 0,
                        "NORMAL" : 1,
                        "TEXCOORD_0" : 2
                    },
                    "indices" : 3,
                    "material" : 0
                }
            ]
        }
    ],
    "textures" : [
        {
            "source" : 0
        }
    ],
    "images" : [
        {
            "mimeType" : "image/jpeg",
            "name" : "wall",
            "uri" : "wall.jpg"
        }
    ],
    "accessors" : [
        {
            "bufferView" : 0,
            "componentType" : 5126,
            "count" : 929,
            "max" : [
                358.1070556640625,
                4.91483211517334,
                10.063385009765625
            ],
            "min" : [
                -83.88948059082031,
                -2.027411460876465,
                -246.1122283935547
            ],
            "type" : "VEC3"
        },
        {
            "bufferView" : 1,
            "componentType" : 5126,
            "count" : 929,
            "type" : "VEC3"
        },
        {
            "bufferView" : 2,
            "componentType" : 5126,
            "count" : 929,
            "type" : "VEC2"
        },
        {
            "bufferView" : 3,
            "componentType" : 5123,
            "count" : 1872,
            "type" : "SCALAR"
        }
    ],
    "bufferViews" : [
        {
            "buffer" : 0,
            "byteLength" : 11148,
            "byteOffset" : 0
        },
        {
            "buffer" : 0,
            "byteLength" : 11148,
            "byteOffset" : 11148
        },
        {
            "buffer" : 0,
            "byteLength" : 7432,
            "byteOffset" : 22296
        },
        {
            "buffer" : 0,
            "byteLength" : 3744,
            "byteOffset" : 29728
        }
    ],
    "buffers" : [
        {
            "byteLength" : 33472,
            "uri" : "seg3.bin"
        }
    ]
}
