{
    "asset" : {
        "generator" : "Khronos glTF Blender I/O v0.9.36",
        "version" : "2.0"
    },
    "scene" : 0,
    "scenes" : [
        {
            "name" : "Scene",
            "nodes" : [
                0,
                1,
                2,
                3,
                4,
                5,
                6,
                7
            ]
        }
    ],
    "nodes" : [
        {
            "mesh" : 0,
            "name" : "Cube"
        },
        {
            "name" : "Light",
            "rotation" : [
                0.16907575726509094,
                0.27217137813568115,
                0.7558803558349609,
                0.570947527885437
            ],
            "scale" : [
                1.1643788814544678,
                2.7995409965515137,
                2.785033702850342
            ],
            "translation" : [
                1.2987689971923828,
                3.091449737548828,
                5.8770952224731445
            ]
        },
        {
            "camera" : 0,
            "name" : "Camera",
            "rotation" : [
                0.483536034822464,
                0.20870360732078552,
                0.33687159419059753,
                0.7804827094078064
            ],
            "scale" : [
                1.8820607662200928,
                2.699603796005249,
                2.1675164699554443
            ],
            "translation" : [
                10.734445571899414,
                -4.839795112609863,
                3.159186601638794
            ]
        },
        {
            "name" : "Empty",
            "rotation" : [
                0.5,
                0.5,
                -0.5,
                0.4999999701976776
            ],
            "translation" : [
                9.732149124145508,
                2.4426665277132997e-06,
                18.180173873901367
            ]
        },
        {
            "camera" : 1,
            "name" : "Camera.001",
            "rotation" : [
                0.483536034822464,
                0.20870360732078552,
                0.33687159419059753,
                0.7804827094078064
            ],
            "scale" : [
                1.8820607662200928,
                2.699603796005249,
                2.1675164699554443
            ],
            "translation" : [
                10.734445571899414,
                -14.694494247436523,
                3.159186601638794
            ]
        },
        {
            "mesh" : 1,
            "name" : "Cube.001"
        },
        {
            "name" : "Light.001",
            "rotation" : [
                0.16907575726509094,
                0.27217137813568115,
                0.7558803558349609,
                0.570947527885437
            ],
            "scale" : [
                1.1643788814544678,
                2.7995409965515137,
                2.785033702850342
            ],
            "translation" : [
                1.2987689971923828,
                -6.763249397277832,
                5.8770952224731445
            ]
        },
        {
            "mesh" : 2,
            "name" : "Plane"
        }
    ],
    "cameras" : [
        {
            "name" : "Camera",
            "perspective" : {
                "yfov" : 0.39959652046304894,
                "zfar" : 100,
                "znear" : 0.10000000149011612
            },
            "type" : "perspective"
        },
        {
            "name" : "Camera.001",
            "perspective" : {
                "yfov" : 0.39959652046304894,
                "zfar" : 100,
                "znear" : 0.10000000149011612
            },
            "type" : "perspective"
        }
    ],
    "materials" : [
        {
            "doubleSided" : true,
            "name" : "Material",
            "pbrMetallicRoughness" : {
                "baseColorTexture" : {
                    "index" : 0,
                    "texCoord" : 0
                },
                "metallicFactor" : 0,
                "roughnessFactor" : 0.4000000059604645
            }
        },
        {
            "doubleSided" : true,
            "name" : "Material.001",
            "pbrMetallicRoughness" : {
                "baseColorTexture" : {
                    "index" : 1,
                    "texCoord" : 0
                },
                "metallicFactor" : 0,
                "roughnessFactor" : 0.4000000059604645
            }
        },
        {
            "doubleSided" : true,
            "name" : "Material.002",
            "pbrMetallicRoughness" : {
                "baseColorTexture" : {
                    "index" : 2,
                    "texCoord" : 0
                },
                "metallicFactor" : 0,
                "roughnessFactor" : 0.5
            }
        }
    ],
    "meshes" : [
        {
            "name" : "Cube",
            "primitives" : [
                {
                    "attributes" : {
                        "POSITION" : 0,
                        "NORMAL" : 1,
                        "TEXCOORD_0" : 2
                    },
                    "indices" : 3,
                    "material" : 0
                }
            ]
        },
        {
            "name" : "Cube.001",
            "primitives" : [
                {
                    "attributes" : {
                        "POSITION" : 4,
                        "NORMAL" : 5,
                        "TEXCOORD_0" : 6
                    },
                    "indices" : 7,
                    "material" : 1
                }
            ]
        },
        {
            "name" : "Plane",
            "primitives" : [
                {
                    "attributes" : {
                        "POSITION" : 8,
                        "NORMAL" : 9,
                        "TEXCOORD_0" : 10
                    },
                    "indices" : 11,
                    "material" : 2
                }
            ]
        }
    ],
    "textures" : [
        {
            "source" : 0
        },
        {
            "source" : 1
        },
        {
            "source" : 2
        }
    ],
    "images" : [
        {
            "mimeType" : "image/png",
            "name" : "seg1_rooftop",
            "uri" : "seg1_rooftop.png"
        },
        {
            "mimeType" : "image/jpeg",
            "name" : "windows_wall_lowres",
            "uri" : "windows_wall_lowres.jpg"
        },
        {
            "mimeType" : "image/png",
            "name" : "velvet_rock_lit",
            "uri" : "velvet_rock_lit.png"
        }
    ],
    "accessors" : [
        {
            "bufferView" : 0,
            "componentType" : 5126,
            "count" : 928,
            "max" : [
                358.1070556640625,
                4.91483211517334,
                10.063385009765625
            ],
            "min" : [
                -83.88948059082031,
                -2.027411460876465,
                -246.1122283935547
            ],
            "type" : "VEC3"
        },
        {
            "bufferView" : 1,
            "componentType" : 5126,
            "count" : 928,
            "type" : "VEC3"
        },
        {
            "bufferView" : 2,
            "componentType" : 5126,
            "count" : 928,
            "type" : "VEC2"
        },
        {
            "bufferView" : 3,
            "componentType" : 5123,
            "count" : 1872,
            "type" : "SCALAR"
        },
        {
            "bufferView" : 4,
            "componentType" : 5126,
            "count" : 1074,
            "max" : [
                358.1070556640625,
                -1.3166923522949219,
                10.063385009765625
            ],
            "min" : [
                -83.88948059082031,
                -333.05926513671875,
                -246.1122283935547
            ],
            "type" : "VEC3"
        },
        {
            "bufferView" : 5,
            "componentType" : 5126,
            "count" : 1074,
            "type" : "VEC3"
        },
        {
            "bufferView" : 6,
            "componentType" : 5126,
            "count" : 1074,
            "type" : "VEC2"
        },
        {
            "bufferView" : 7,
            "componentType" : 5123,
            "count" : 1875,
            "type" : "SCALAR"
        },
        {
            "bufferView" : 8,
            "componentType" : 5126,
            "count" : 4,
            "max" : [
                -2.350374221801758,
                47.173091888427734,
                -232.1680908203125
            ],
            "min" : [
                -32.27472686767578,
                -1.2295494079589844,
                -232.1680908203125
            ],
            "type" : "VEC3"
        },
        {
            "bufferView" : 9,
            "componentType" : 5126,
            "count" : 4,
            "type" : "VEC3"
        },
        {
            "bufferView" : 10,
            "componentType" : 5126,
            "count" : 4,
            "type" : "VEC2"
        },
        {
            "bufferView" : 11,
            "componentType" : 5123,
            "count" : 6,
            "type" : "SCALAR"
        }
    ],
    "bufferViews" : [
        {
            "buffer" : 0,
            "byteLength" : 11136,
            "byteOffset" : 0
        },
        {
            "buffer" : 0,
            "byteLength" : 11136,
            "byteOffset" : 11136
        },
        {
            "buffer" : 0,
            "byteLength" : 7424,
            "byteOffset" : 22272
        },
        {
            "buffer" : 0,
            "byteLength" : 3744,
            "byteOffset" : 29696
        },
        {
            "buffer" : 0,
            "byteLength" : 12888,
            "byteOffset" : 33440
        },
        {
            "buffer" : 0,
            "byteLength" : 12888,
            "byteOffset" : 46328
        },
        {
            "buffer" : 0,
            "byteLength" : 8592,
            "byteOffset" : 59216
        },
        {
            "buffer" : 0,
            "byteLength" : 3750,
            "byteOffset" : 67808
        },
        {
            "buffer" : 0,
            "byteLength" : 48,
            "byteOffset" : 71560
        },
        {
            "buffer" : 0,
            "byteLength" : 48,
            "byteOffset" : 71608
        },
        {
            "buffer" : 0,
            "byteLength" : 32,
            "byteOffset" : 71656
        },
        {
            "buffer" : 0,
            "byteLength" : 12,
            "byteOffset" : 71688
        }
    ],
    "buffers" : [
        {
            "byteLength" : 71700,
            "uri" : "seg3.bin"
        }
    ]
}
