{
    "asset" : {
        "generator" : "Khronos glTF Blender I/O v0.9.36",
        "version" : "2.0"
    },
    "scene" : 0,
    "scenes" : [
        {
            "name" : "Scene",
            "nodes" : [
                0,
                1,
                2,
                3,
                4
            ]
        }
    ],
    "nodes" : [
        {
            "mesh" : 0,
            "name" : "Cube"
        },
        {
            "name" : "Light",
            "rotation" : [
                0.16907575726509094,
                0.27217137813568115,
                0.7558803558349609,
                0.570947527885437
            ],
            "scale" : [
                1.2765765190124512,
                3.4274489879608154,
                3.4405388832092285
            ],
            "translation" : [
                13.616500854492188,
                -2.3920464515686035,
                -10.455245971679688
            ]
        },
        {
            "camera" : 0,
            "name" : "Camera",
            "rotation" : [
                0.483536034822464,
                0.20870360732078552,
                0.33687159419059753,
                0.7804827094078064
            ],
            "scale" : [
                2.23500394821167,
                3.295356035232544,
                2.6398227214813232
            ],
            "translation" : [
                24.455055236816406,
                -10.323291778564453,
                -13.713335037231445
            ]
        },
        {
            "name" : "Empty"
        },
        {
            "mesh" : 1,
            "name" : "Cube.001"
        }
    ],
    "cameras" : [
        {
            "name" : "Camera",
            "perspective" : {
                "yfov" : 0.39959652046304894,
                "zfar" : 100,
                "znear" : 0.10000000149011612
            },
            "type" : "perspective"
        }
    ],
    "materials" : [
        {
            "doubleSided" : true,
            "name" : "Material",
            "pbrMetallicRoughness" : {
                "baseColorTexture" : {
                    "index" : 0,
                    "texCoord" : 0
                },
                "metallicFactor" : 0,
                "roughnessFactor" : 0.4000000059604645
            }
        },
        {
            "doubleSided" : true,
            "name" : "Material.002",
            "pbrMetallicRoughness" : {
                "baseColorTexture" : {
                    "index" : 1,
                    "texCoord" : 0
                },
                "metallicFactor" : 0,
                "roughnessFactor" : 0.4000000059604645
            }
        }
    ],
    "meshes" : [
        {
            "name" : "Cube",
            "primitives" : [
                {
                    "attributes" : {
                        "POSITION" : 0,
                        "NORMAL" : 1,
                        "TEXCOORD_0" : 2
                    },
                    "indices" : 3,
                    "material" : 0
                }
            ]
        },
        {
            "name" : "Cube.001",
            "primitives" : [
                {
                    "attributes" : {
                        "POSITION" : 4,
                        "NORMAL" : 5,
                        "TEXCOORD_0" : 6
                    },
                    "indices" : 7,
                    "material" : 1
                }
            ]
        }
    ],
    "textures" : [
        {
            "source" : 0
        },
        {
            "source" : 1
        }
    ],
    "images" : [
        {
            "mimeType" : "image/png",
            "name" : "seg2_roof",
            "uri" : "seg2_roof.png"
        },
        {
            "mimeType" : "image/jpeg",
            "name" : "windows_wall_lowres",
            "uri" : "windows_wall_lowres.jpg"
        }
    ],
    "accessors" : [
        {
            "bufferView" : 0,
            "componentType" : 5126,
            "count" : 586,
            "max" : [
                73.50856018066406,
                5.667797088623047,
                10.077670097351074
            ],
            "min" : [
                -342.1404724121094,
                -6.277367115020752,
                -424.0211486816406
            ],
            "type" : "VEC3"
        },
        {
            "bufferView" : 1,
            "componentType" : 5126,
            "count" : 586,
            "type" : "VEC3"
        },
        {
            "bufferView" : 2,
            "componentType" : 5126,
            "count" : 586,
            "type" : "VEC2"
        },
        {
            "bufferView" : 3,
            "componentType" : 5123,
            "count" : 924,
            "type" : "SCALAR"
        },
        {
            "bufferView" : 4,
            "componentType" : 5126,
            "count" : 594,
            "max" : [
                70.82245635986328,
                -5.844095230102539,
                2.6273317337036133
            ],
            "min" : [
                -337.1292419433594,
                -339.692138671875,
                -422.7914123535156
            ],
            "type" : "VEC3"
        },
        {
            "bufferView" : 5,
            "componentType" : 5126,
            "count" : 594,
            "type" : "VEC3"
        },
        {
            "bufferView" : 6,
            "componentType" : 5126,
            "count" : 594,
            "type" : "VEC2"
        },
        {
            "bufferView" : 7,
            "componentType" : 5123,
            "count" : 924,
            "type" : "SCALAR"
        }
    ],
    "bufferViews" : [
        {
            "buffer" : 0,
            "byteLength" : 7032,
            "byteOffset" : 0
        },
        {
            "buffer" : 0,
            "byteLength" : 7032,
            "byteOffset" : 7032
        },
        {
            "buffer" : 0,
            "byteLength" : 4688,
            "byteOffset" : 14064
        },
        {
            "buffer" : 0,
            "byteLength" : 1848,
            "byteOffset" : 18752
        },
        {
            "buffer" : 0,
            "byteLength" : 7128,
            "byteOffset" : 20600
        },
        {
            "buffer" : 0,
            "byteLength" : 7128,
            "byteOffset" : 27728
        },
        {
            "buffer" : 0,
            "byteLength" : 4752,
            "byteOffset" : 34856
        },
        {
            "buffer" : 0,
            "byteLength" : 1848,
            "byteOffset" : 39608
        }
    ],
    "buffers" : [
        {
            "byteLength" : 41456,
            "uri" : "seg2.bin"
        }
    ]
}
