# Blender v2.80 (sub 75) OBJ File: ''
# www.blender.org
mtllib roof.mtl
o Cube
v 1.000000 1.000000 -1.000000
v 1.000000 -1.000000 -1.000000
v 1.000000 1.000000 1.000000
v 1.000000 -1.000000 1.000000
v -1.000000 1.000000 -1.000000
v -1.000000 -1.000000 -1.000000
v -1.000000 1.000000 1.000000
v -1.000000 -1.000000 1.000000
vt 0.000646 0.748832
vt 0.001413 0.500535
vt 0.251096 0.501166
vt 0.248927 0.746850
vt 0.248927 0.746850
vt 0.251096 0.501166
vt 0.501087 0.499028
vt 0.501604 0.749263
vt 0.749857 0.500464
vt 0.749153 0.748746
vt 0.749857 0.500464
vt 0.999359 0.501168
vt 0.999388 0.749205
vt 0.501388 0.999498
vt 0.501604 0.749263
vt 0.749153 0.748746
vt 0.749426 0.999469
vt 0.501087 0.499028
vt 0.502093 0.251363
vt 0.748983 0.251206
vn 0.0000 1.0000 0.0000
vn 0.0000 0.0000 1.0000
vn -1.0000 0.0000 0.0000
vn 0.0000 -1.0000 0.0000
vn 1.0000 0.0000 0.0000
vn 0.0000 0.0000 -1.0000
usemtl Material
s off
f 1/1/1 5/2/1 7/3/1 3/4/1
f 4/5/2 3/6/2 7/7/2 8/8/2
f 8/8/3 7/7/3 5/9/3 6/10/3
f 6/10/4 2/11/4 4/12/4 8/13/4
f 2/14/5 1/15/5 3/16/5 4/17/5
f 6/18/6 5/19/6 1/20/6 2/11/6
