{
    "asset" : {
        "generator" : "Khronos glTF Blender I/O v0.9.36",
        "version" : "2.0"
    },
    "scene" : 0,
    "scenes" : [
        {
            "name" : "Scene",
            "nodes" : [
                0,
                1,
                2,
                3
            ]
        }
    ],
    "nodes" : [
        {
            "mesh" : 0,
            "name" : "Cube"
        },
        {
            "name" : "Empty",
            "rotation" : [
                -0.5,
                0.4999999701976776,
                0.5,
                0.5
            ],
            "translation" : [
                3.8288848400115967,
                0,
                10.022486686706543
            ]
        },
        {
            "mesh" : 1,
            "name" : "Cube.001"
        },
        {
            "mesh" : 2,
            "name" : "Cube.002"
        }
    ],
    "materials" : [
        {
            "doubleSided" : true,
            "name" : "Material",
            "pbrMetallicRoughness" : {
                "baseColorTexture" : {
                    "index" : 0,
                    "texCoord" : 0
                },
                "metallicFactor" : 0,
                "roughnessFactor" : 0.4000000059604645
            }
        },
        {
            "doubleSided" : true,
            "name" : "Material.003",
            "pbrMetallicRoughness" : {
                "baseColorTexture" : {
                    "index" : 1,
                    "texCoord" : 0
                },
                "metallicFactor" : 0,
                "roughnessFactor" : 0.4000000059604645
            }
        },
        {
            "doubleSided" : true,
            "name" : "Material.004",
            "pbrMetallicRoughness" : {
                "baseColorTexture" : {
                    "index" : 2,
                    "texCoord" : 0
                },
                "metallicFactor" : 0,
                "roughnessFactor" : 0.5
            }
        }
    ],
    "meshes" : [
        {
            "name" : "Cube",
            "primitives" : [
                {
                    "attributes" : {
                        "POSITION" : 0,
                        "NORMAL" : 1,
                        "TEXCOORD_0" : 2
                    },
                    "indices" : 3,
                    "material" : 0
                }
            ]
        },
        {
            "name" : "Cube.003",
            "primitives" : [
                {
                    "attributes" : {
                        "POSITION" : 4,
                        "NORMAL" : 5,
                        "TEXCOORD_0" : 6
                    },
                    "indices" : 7,
                    "material" : 1
                }
            ]
        },
        {
            "name" : "Cube.001",
            "primitives" : [
                {
                    "attributes" : {
                        "POSITION" : 8,
                        "NORMAL" : 9,
                        "TEXCOORD_0" : 10
                    },
                    "indices" : 11,
                    "material" : 2
                }
            ]
        }
    ],
    "textures" : [
        {
            "source" : 0
        },
        {
            "source" : 1
        },
        {
            "source" : 2
        }
    ],
    "images" : [
        {
            "mimeType" : "image/png",
            "name" : "seg1_rooftop",
            "uri" : "seg1_rooftop.png"
        },
        {
            "mimeType" : "image/png",
            "name" : "wall_seg1",
            "uri" : "wall_seg1.png"
        },
        {
            "mimeType" : "image/jpeg",
            "name" : "wall",
            "uri" : "wall.jpg"
        }
    ],
    "accessors" : [
        {
            "bufferView" : 0,
            "componentType" : 5126,
            "count" : 6918,
            "max" : [
                68.89959716796875,
                6.128641128540039,
                17.231605529785156
            ],
            "min" : [
                -47.90538024902344,
                -1.013301134109497,
                -527.6687622070312
            ],
            "type" : "VEC3"
        },
        {
            "bufferView" : 1,
            "componentType" : 5126,
            "count" : 6918,
            "type" : "VEC3"
        },
        {
            "bufferView" : 2,
            "componentType" : 5126,
            "count" : 6918,
            "type" : "VEC2"
        },
        {
            "bufferView" : 3,
            "componentType" : 5123,
            "count" : 10797,
            "type" : "SCALAR"
        },
        {
            "bufferView" : 4,
            "componentType" : 5126,
            "count" : 7994,
            "max" : [
                67.09309387207031,
                0.451568603515625,
                15.284209251403809
            ],
            "min" : [
                -46.649330139160156,
                -318.81317138671875,
                -525.6362915039062
            ],
            "type" : "VEC3"
        },
        {
            "bufferView" : 5,
            "componentType" : 5126,
            "count" : 7994,
            "type" : "VEC3"
        },
        {
            "bufferView" : 6,
            "componentType" : 5126,
            "count" : 7994,
            "type" : "VEC2"
        },
        {
            "bufferView" : 7,
            "componentType" : 5123,
            "count" : 12405,
            "type" : "SCALAR"
        },
        {
            "bufferView" : 8,
            "componentType" : 5126,
            "count" : 24,
            "max" : [
                47.671241760253906,
                12.305103302001953,
                -318.5941467285156
            ],
            "min" : [
                -34.490867614746094,
                8.822636604309082,
                -322.06298828125
            ],
            "type" : "VEC3"
        },
        {
            "bufferView" : 9,
            "componentType" : 5126,
            "count" : 24,
            "type" : "VEC3"
        },
        {
            "bufferView" : 10,
            "componentType" : 5126,
            "count" : 24,
            "type" : "VEC2"
        },
        {
            "bufferView" : 11,
            "componentType" : 5123,
            "count" : 36,
            "type" : "SCALAR"
        }
    ],
    "bufferViews" : [
        {
            "buffer" : 0,
            "byteLength" : 83016,
            "byteOffset" : 0
        },
        {
            "buffer" : 0,
            "byteLength" : 83016,
            "byteOffset" : 83016
        },
        {
            "buffer" : 0,
            "byteLength" : 55344,
            "byteOffset" : 166032
        },
        {
            "buffer" : 0,
            "byteLength" : 21594,
            "byteOffset" : 221376
        },
        {
            "buffer" : 0,
            "byteLength" : 95928,
            "byteOffset" : 242972
        },
        {
            "buffer" : 0,
            "byteLength" : 95928,
            "byteOffset" : 338900
        },
        {
            "buffer" : 0,
            "byteLength" : 63952,
            "byteOffset" : 434828
        },
        {
            "buffer" : 0,
            "byteLength" : 24810,
            "byteOffset" : 498780
        },
        {
            "buffer" : 0,
            "byteLength" : 288,
            "byteOffset" : 523592
        },
        {
            "buffer" : 0,
            "byteLength" : 288,
            "byteOffset" : 523880
        },
        {
            "buffer" : 0,
            "byteLength" : 192,
            "byteOffset" : 524168
        },
        {
            "buffer" : 0,
            "byteLength" : 72,
            "byteOffset" : 524360
        }
    ],
    "buffers" : [
        {
            "byteLength" : 524432,
            "uri" : "seg1.bin"
        }
    ]
}
