{
    "asset" : {
        "generator" : "Khronos glTF Blender I/O v0.9.36",
        "version" : "2.0"
    },
    "scene" : 0,
    "scenes" : [
        {
            "name" : "Scene",
            "nodes" : [
                0,
                1
            ]
        }
    ],
    "nodes" : [
        {
            "mesh" : 0,
            "name" : "Cube"
        },
        {
            "name" : "Empty",
            "rotation" : [
                -0.5,
                0.4999999701976776,
                0.5,
                0.5
            ],
            "translation" : [
                3.8288848400115967,
                0,
                10.022486686706543
            ]
        }
    ],
    "materials" : [
        {
            "doubleSided" : true,
            "name" : "Material",
            "pbrMetallicRoughness" : {
                "baseColorTexture" : {
                    "index" : 0,
                    "texCoord" : 0
                },
                "metallicFactor" : 0,
                "roughnessFactor" : 0.4000000059604645
            }
        }
    ],
    "meshes" : [
        {
            "name" : "Cube",
            "primitives" : [
                {
                    "attributes" : {
                        "POSITION" : 0,
                        "NORMAL" : 1,
                        "TEXCOORD_0" : 2
                    },
                    "indices" : 3,
                    "material" : 0
                }
            ]
        }
    ],
    "textures" : [
        {
            "source" : 0
        }
    ],
    "images" : [
        {
            "mimeType" : "image/jpeg",
            "name" : "wall",
            "uri" : "wall.jpg"
        }
    ],
    "accessors" : [
        {
            "bufferView" : 0,
            "componentType" : 5126,
            "count" : 6921,
            "max" : [
                20.509904861450195,
                3.954730987548828,
                493.69573974609375
            ],
            "min" : [
                -42.27009582519531,
                -1.013301134109497,
                -0.8431040644645691
            ],
            "type" : "VEC3"
        },
        {
            "bufferView" : 1,
            "componentType" : 5126,
            "count" : 6921,
            "type" : "VEC3"
        },
        {
            "bufferView" : 2,
            "componentType" : 5126,
            "count" : 6921,
            "type" : "VEC2"
        },
        {
            "bufferView" : 3,
            "componentType" : 5123,
            "count" : 10797,
            "type" : "SCALAR"
        }
    ],
    "bufferViews" : [
        {
            "buffer" : 0,
            "byteLength" : 83052,
            "byteOffset" : 0
        },
        {
            "buffer" : 0,
            "byteLength" : 83052,
            "byteOffset" : 83052
        },
        {
            "buffer" : 0,
            "byteLength" : 55368,
            "byteOffset" : 166104
        },
        {
            "buffer" : 0,
            "byteLength" : 21594,
            "byteOffset" : 221472
        }
    ],
    "buffers" : [
        {
            "byteLength" : 243068,
            "uri" : "seg1.bin"
        }
    ]
}
